<svg width="40" height="43" viewBox="0 0 81 87" fill="none" xmlns="http://www.w3.org/2000/svg">
<rect width="81" height="87" rx="20" fill="#4C5270"/>
<path fill-rule="evenodd" clip-rule="evenodd" d="M17.0833 45C17.0833 32.3435 27.3435 22.0833 40 22.0833C52.6565 22.0833 62.9167 32.3435 62.9167 45C62.9167 57.6565 52.6565 67.9167 40 67.9167C27.3435 67.9167 17.0833 57.6565 17.0833 45ZM40 26.25C29.6447 26.25 21.25 34.6447 21.25 45C21.25 55.3553 29.6447 63.75 40 63.75C50.3554 63.75 58.75 55.3553 58.75 45C58.75 34.6447 50.3554 26.25 40 26.25ZM29.1519 46.6519L38.5269 37.2769C39.3405 36.4633 40.6596 36.4633 41.4731 37.2769L50.8481 46.6519C51.6617 47.4655 51.6617 48.7845 50.8481 49.5981C50.0346 50.4117 48.7155 50.4117 47.9019 49.5981L40 41.6963L32.0981 49.5981C31.2846 50.4117 29.9655 50.4117 29.1519 49.5981C28.3383 48.7845 28.3383 47.4655 29.1519 46.6519Z" fill="#F652A0"/>
</svg>
