<svg width="50" height="50" viewBox="0 0 50 50" fill="none" xmlns="http://www.w3.org/2000/svg">
<path fill-rule="evenodd" clip-rule="evenodd" d="M2.08334 25C2.08334 12.3435 12.3435 2.08334 25 2.08334C37.6565 2.08334 47.9167 12.3435 47.9167 25C47.9167 37.6565 37.6565 47.9167 25 47.9167C12.3435 47.9167 2.08334 37.6565 2.08334 25ZM25 6.25001C14.6447 6.25001 6.25001 14.6447 6.25001 25C6.25001 35.3554 14.6447 43.75 25 43.75C35.3554 43.75 43.75 35.3554 43.75 25C43.75 14.6447 35.3554 6.25001 25 6.25001ZM14.1519 26.6519L23.5269 17.2769C24.3405 16.4633 25.6596 16.4633 26.4731 17.2769L35.8481 26.6519C36.6617 27.4655 36.6617 28.7846 35.8481 29.5981C35.0346 30.4117 33.7155 30.4117 32.9019 29.5981L25 21.6963L17.0981 29.5981C16.2846 30.4117 14.9655 30.4117 14.1519 29.5981C13.3383 28.7846 13.3383 27.4655 14.1519 26.6519Z" fill="black"/>
</svg>